#!OML:ASF Y:\EmotionMaleHayes\Project 1\Capture day 1\Session 1\Male1.ASF
:FULLY-SPECIFIED
:DEGREES
401
root 45.9207 17.1999 -1.38949 798.577 85.894 801.866
lowerback 5.793 3.46412 -6.37575
upperback 2.25573 4.31684 -1.67499
thorax -1.2426 2.17662 1.52875
lowerneck -20.9489 -1.508 1.1568
upperneck 22.7122 -3.13647 3.01747
head 10.8363 -0.863543 0.433045
rclavicle -3.93345e-014 1.35174e-014
rhumerus -39.5747 20.5941 -96.2125
rradius 68.1368
rwrist -6.67931
rhand -13.3723 -29.587
rfingers 7.12502
rthumb 12.7343 -59.1787
lclavicle -3.93345e-014 1.35174e-014
lhumerus -42.9093 -7.70874 85.8246
lradius 28.0258
lwrist 1.1286
lhand -19.6894 -20.7458
lfingers 7.12502
lthumb 6.6397 9.13014
rfemur 6.1327 -0.537222 10.0455
rtibia 7.87796
rfoot -14.1573 -2.7415
rtoes 1.64625
lfemur 12.2001 -0.489609 -22.0084
ltibia 0.621357
lfoot -13.0376 10.7221
ltoes 5.38284
402
root 45.9215 17.1966 -1.38579 796.846 85.844 800.034
lowerback 5.73755 3.49954 -6.51034
upperback 2.26138 4.36163 -1.66407
thorax -1.21947 2.19784 1.61406
lowerneck -20.9554 -1.49475 1.05475
upperneck 22.7019 -3.1186 3.14933
head 10.838 -0.847558 0.500343
rclavicle -3.96327e-014 4.25399e-014
rhumerus -39.5086 20.4584 -96.1399
rradius 67.7867
rwrist -6.51642
rhand -13.2183 -30.0254
rfingers 7.12502
rthumb 12.8828 -59.6078
lclavicle -3.96327e-014 4.25399e-014
lhumerus -42.8442 -7.91723 85.8933
lradius 28.3603
lwrist 1.0566
lhand -19.2529 -20.5668
lfingers 7.12502
lthumb 7.06107 9.29543
rfemur 5.98227 -0.427001 10.0443
rtibia 7.75092
rfoot -13.914 -2.89818
rtoes 0.914468
lfemur 12.1289 -0.395513 -21.9956
ltibia 0.544691
lfoot -12.937 10.8382
ltoes 4.73895
403
root 45.923 17.1926 -1.38536 795.896 85.9278 799.011
lowerback 5.71578 3.50092 -6.4648
upperback 2.27917 4.3682 -1.6079
thorax -1.19069 2.19955 1.6483
lowerneck -20.9854 -1.51554 0.845864
upperneck 22.7268 -3.1073 3.25038
head 10.8578 -0.847319 0.573205
rclavicle 3.09359e-014 -4.96962e-014
rhumerus -39.3886 20.356 -95.971
rradius 67.3156
rwrist -6.65778
rhand -13.0492 -30.0486
rfingers 7.12502
rthumb 13.0458 -59.6207
lclavicle 3.09359e-014 -4.96962e-014
lhumerus -42.7707 -8.13403 86.016
lradius 28.6732
lwrist 0.922954
lhand -18.924 -20.4584
lfingers 7.12502
lthumb 7.37853 9.39292
rfemur 5.89374 -0.642514 10.1146
rtibia 7.79148
rfoot -13.9047 -2.73043
rtoes -0.0299279
lfemur 12.0734 -0.304855 -21.8519
ltibia 0.500727
lfoot -12.8111 10.7936
ltoes 3.8654
404
root 45.9102 17.1932 -1.37232 793.022 86.1725 796.016
lowerback 5.85372 3.54922 -6.35517
upperback 2.20334 4.42001 -1.48672
thorax -1.35198 2.22886 1.69603
lowerneck -20.9811 -1.49914 0.863233
upperneck 22.7886 -3.04579 3.07759
head 10.8747 -0.838998 0.517438
rclavicle -9.31803e-015 -3.97569e-015
rhumerus -39.3404 20.1103 -95.7828
rradius 66.724
rwrist -6.82306
rhand -12.9251 -29.1612
rfingers 7.12502
rthumb 13.1654 -58.7255
lclavicle -9.31803e-015 -3.97569e-015
lhumerus -42.7289 -8.32843 86.0975
lradius 28.9549
lwrist 0.564578
lhand -18.8193 -20.7733
lfingers 7.12502
lthumb 7.4796 9.07443
rfemur 5.61665 0.0376984 10.7134
rtibia 7.97284
rfoot -14.232 -3.15019
rtoes 1.29838
lfemur 11.8451 -0.316361 -21.335
ltibia 0.567627
lfoot -12.7814 10.843
ltoes 3.55453
405
root 45.9133 17.1913 -1.37237 794.382 85.9091 797.313
lowerback 5.8207 3.57764 -6.59752
upperback 2.20279 4.4485 -1.58623
thorax -1.34562 2.24381 1.72678
lowerneck -21.1434 -1.53754 1.1112
upperneck 23.0754 -3.06599 2.60027
head 10.9979 -0.879312 0.299913
rclavicle 3.02898e-014 -4.77083e-015
rhumerus -39.3598 19.7505 -95.6402
rradius 66.2296
rwrist -6.8179
rhand -13.05 -28.4422
rfingers 7.12502
rthumb 13.045 -58.0143
lclavicle 3.02898e-014 -4.77083e-015
lhumerus -42.7164 -8.68021 86.1752
lradius 29.2876
lwrist 0.192675
lhand -18.7507 -21.1513
lfingers 7.12502
lthumb 7.54583 8.6941
rfemur 5.55628 -0.242274 10.2994
rtibia 7.8901
rfoot -14.0995 -3.10933
rtoes -0.991333
lfemur 11.7967 -0.339857 -21.692
ltibia 0.521639
lfoot -12.8152 10.829
ltoes 3.87607
